<?xml version="1.0" encoding="utf-8"?>
<!-- Generator: Adobe Illustrator 25.0.1, SVG Export Plug-In . SVG Version: 6.00 Build 0)  -->
<svg version="1.1" id="Layer_1" xmlns="http://www.w3.org/2000/svg" xmlns:xlink="http://www.w3.org/1999/xlink" x="0px" y="0px"
	 viewBox="0 0 49.9 49.9" style="enable-background:new 0 0 49.9 49.9;" xml:space="preserve">
<path id="Контур_4" d="M49.8,14.7c0-2.1-0.4-4.1-1.2-6.1c-1.3-3.4-3.9-6-7.3-7.3c-1.9-0.7-4-1.1-6.1-1.2C32.6,0,31.7,0,25,0
	s-7.6,0-10.3,0.2c-2.1,0-4.1,0.4-6.1,1.2c-3.4,1.3-6,3.9-7.3,7.3c-0.7,1.9-1.1,4-1.2,6.1C0,17.3,0,18.2,0,25s0,7.6,0.2,10.3
	c0,2.1,0.4,4.1,1.2,6.1c1.3,3.4,3.9,6,7.3,7.3c1.9,0.7,4,1.1,6.1,1.2c2.7,0.1,3.5,0.2,10.3,0.2s7.6,0,10.3-0.2
	c2.1,0,4.1-0.4,6.1-1.2c3.4-1.3,6-3.9,7.3-7.3c0.7-1.9,1.1-4,1.2-6.1c0.1-2.7,0.2-3.5,0.2-10.3S49.9,17.3,49.8,14.7z M25,37.8
	c-7.1,0-12.8-5.7-12.8-12.8c0-7.1,5.7-12.8,12.8-12.8c7.1,0,12.8,5.7,12.8,12.8C37.8,32,32,37.8,25,37.8L25,37.8z M38.3,14.6
	c-1.7,0-3-1.3-3-3s1.3-3,3-3s3,1.3,3,3C41.3,13.3,39.9,14.6,38.3,14.6L38.3,14.6L38.3,14.6z"/>
<circle cx="25" cy="25" r="6.8"/>
</svg>
