<svg xmlns="http://www.w3.org/2000/svg" width="54.919" height="45.305" viewBox="0 0 54.919 45.305">
  <path id="Контур_1" data-name="Контур 1" d="M714.119,578.728a1.172,1.172,0,0,0-.8-.87,4.1,4.1,0,0,0-2.162.153s-48.12,17.3-50.868,19.211c-.593.413-.791.652-.889.933-.475,1.364,1.005,1.966,1.005,1.966l12.4,4.041a1.358,1.358,0,0,0,.627-.037c2.822-1.783,28.387-17.927,29.862-18.469.232-.069.4.01.358.17-.59,2.071-22.794,21.809-22.794,21.809a1.113,1.113,0,0,0-.139.228l-.029-.017-1.157,12.3s-.485,3.769,3.284,0c2.659-2.659,5.232-4.884,6.52-5.966,4.264,2.944,8.854,6.2,10.834,7.9a3.449,3.449,0,0,0,2.512.969c1.881-.071,2.405-2.136,2.405-2.136s8.769-35.292,9.062-40.02c.029-.463.068-.759.072-1.077A3.982,3.982,0,0,0,714.119,578.728Z" transform="translate(-659.308 -577.753)" fill="#231f20"/>
</svg>
