<svg xmlns="http://www.w3.org/2000/svg" xmlns:xlink="http://www.w3.org/1999/xlink" width="47.673" height="47.673" viewBox="0 0 47.673 47.673">
  <defs>
    <clipPath id="clip-path">
      <path id="Контур_13" data-name="Контур 13" d="M595.77,610.024c-.575,1.626-2.858,2.971-4.679,3.364-1.247.265-2.873.475-8.35-1.795-6.152-2.549-14.7-11.629-14.7-17.671,0-3.075,1.773-6.657,4.874-6.657,1.492,0,1.821.029,2.312,1.207.575,1.387,1.976,4.807,2.143,5.157.689,1.438-.7,2.28-1.709,3.531-.322.377-.686.785-.279,1.486a21.109,21.109,0,0,0,3.867,4.8,17.5,17.5,0,0,0,5.589,3.448,1.5,1.5,0,0,0,1.681-.265,29.62,29.62,0,0,0,1.864-2.467,1.328,1.328,0,0,1,1.709-.518c.426.148,5.849,2.666,6.078,3.069a5.911,5.911,0,0,1-.4,3.307M581.9,576.364h-.012A23.819,23.819,0,0,0,562.6,614.17l-2.97,8.858,9.16-2.928A23.833,23.833,0,1,0,581.9,576.364" fill="none" clip-rule="evenodd"/>
    </clipPath>
  </defs>
  <g id="Сгруппировать_19" data-name="Сгруппировать 19" transform="translate(-558.058 -576.364)">
    <g id="Сгруппировать_18" data-name="Сгруппировать 18">
      <g id="Сгруппировать_17" data-name="Сгруппировать 17" clip-path="url(#clip-path)">
        <rect id="Прямоугольник_9" data-name="Прямоугольник 9" width="71.509" height="71.509" transform="translate(546.14 564.446)"/>
      </g>
    </g>
  </g>
</svg>
