<?xml version="1.0" encoding="utf-8"?>
<!-- Generator: Adobe Illustrator 16.0.0, SVG Export Plug-In . SVG Version: 6.00 Build 0)  -->
<!DOCTYPE svg PUBLIC "-//W3C//DTD SVG 1.1//EN" "http://www.w3.org/Graphics/SVG/1.1/DTD/svg11.dtd">
<svg version="1.1" id="Layer_1" xmlns="http://www.w3.org/2000/svg" xmlns:xlink="http://www.w3.org/1999/xlink" x="0px" y="0px"
	 width="20.69px" height="21.333px" viewBox="0 0 20.69 21.333" enable-background="new 0 0 20.69 21.333" xml:space="preserve">
<path fill="#010101" d="M2.326,18.391V2.921h7.747c3.479,0,5.381,2.344,5.381,5.148c0,2.783-1.902,5.125-5.381,5.125H6.314v5.196
	H2.326L2.326,18.391z M11.395,8.07c0-1.066-0.788-1.67-1.855-1.67H6.314v3.316h3.224C10.605,9.717,11.395,9.114,11.395,8.07z"/>
<path fill="#010101" d="M15.454,16.489c0-1.184,0.996-2.18,2.18-2.18s2.182,0.996,2.182,2.18s-0.998,2.181-2.182,2.181
	S15.454,17.672,15.454,16.489z"/>
</svg>
