<?xml version="1.0" encoding="utf-8"?>
<!-- Generator: Adobe Illustrator 25.0.1, SVG Export Plug-In . SVG Version: 6.00 Build 0)  -->
<svg version="1.1" id="Layer_1" xmlns="http://www.w3.org/2000/svg" xmlns:xlink="http://www.w3.org/1999/xlink" x="0px" y="0px"
	 viewBox="0 0 224 157.6" style="enable-background:new 0 0 224 157.6;" xml:space="preserve">
<style type="text/css">
	.st0{font-family:'Helvetica';}
	.st1{font-size:19.322px;}
</style>
<g id="Сгруппировать_5">
	<path id="Контур_1" d="M49.5,29.3c0-4.8-3.6-7.6-8.4-7.6H26.4v15.1H41C45.9,36.8,49.5,34.1,49.5,29.3 M8.3,76.2V5.9h35.2
		c15.8,0,24.4,10.6,24.4,23.4c0,12.6-8.6,23.3-24.4,23.3H26.4v23.6H8.3z"/>
</g>
<rect id="Прямоугольник_42" x="86.3" y="5.9" width="18.1" height="70.3"/>
<g id="Сгруппировать_10">
	<path id="Контур_2" d="M0,121.3c0,21.6,16.4,36.3,38,36.3c17,0,26.1-9.8,30.7-18.9l-15.6-7.4c-2.6,6.1-8.5,10-15.1,10.2
		c-11.5,0-19.6-8.9-19.6-20.3s8.1-20.3,19.6-20.3c6.6,0.2,12.5,4.2,15.1,10.2l15.6-7.4C64.1,94.5,55,84.9,38,84.9
		C16.4,84.9,0,99.6,0,121.3"/>
</g>
<path id="Контур_4" d="M86.3,149.9h15.8v-19.7h54.5v-18.1h-54.5V92.5H86.3V149.9z"/>
<text transform="matrix(1 0 0 1 156.036 15)" class="st0 st1">creative</text>
<text transform="matrix(1 0 0 1 156.036 37.083)" class="st0 st1">agency</text>
</svg>
